<?xml version="1.0" encoding="utf-8"?>
<!-- Generator: Adobe Illustrator 17.1.0, SVG Export Plug-In . SVG Version: 6.00 Build 0)  -->
<!DOCTYPE svg PUBLIC "-//W3C//DTD SVG 1.1//EN" "http://www.w3.org/Graphics/SVG/1.1/DTD/svg11.dtd">
<svg version="1.1" id="Layer_1" xmlns="http://www.w3.org/2000/svg" xmlns:xlink="http://www.w3.org/1999/xlink" x="0px" y="0px"
	 viewBox="0 0 650 650" enable-background="new 0 0 650 650" xml:space="preserve">
<g>
	<path fill="none" stroke="#000000" stroke-width="2" stroke-miterlimit="10" d="M325,34.57
		c166.593,0,301.643,43.838,301.643,97.916S491.593,230.402,325,230.402S23.357,203.533,23.357,170.389S158.407,110.376,325,110.376
		s301.643,43.838,301.643,97.916S491.593,306.207,325,306.207S23.357,279.339,23.357,246.194S158.407,186.182,325,186.182
		s301.643,43.838,301.643,97.916S491.593,382.013,325,382.013S23.357,355.144,23.357,322S158.407,261.987,325,261.987
		s301.643,43.838,301.643,97.916S491.593,457.818,325,457.818S23.357,430.95,23.357,397.806S158.407,337.793,325,337.793
		s301.643,43.838,301.643,97.916S491.593,533.624,325,533.624S23.357,506.755,23.357,473.611S158.407,413.598,325,413.598
		s301.643,43.838,301.643,97.916S491.593,609.43,325,609.43"/>
</g>
<ellipse fill="none" stroke="#000000" stroke-width="2" stroke-miterlimit="10" cx="325" cy="170.389" rx="28.135" ry="5.598"/>
<ellipse fill="none" stroke="#000000" stroke-width="2" stroke-miterlimit="10" cx="325" cy="473.611" rx="28.135" ry="5.598"/>
<ellipse fill="none" stroke="#000000" stroke-width="2" stroke-miterlimit="10" cx="325" cy="397.806" rx="28.135" ry="5.598"/>
<ellipse fill="none" stroke="#000000" stroke-width="2" stroke-miterlimit="10" cx="325" cy="322" rx="28.135" ry="5.598"/>
<ellipse fill="none" stroke="#000000" stroke-width="2" stroke-miterlimit="10" cx="325" cy="246.194" rx="28.135" ry="5.598"/>
<line fill="none" stroke="#000000" stroke-width="2" stroke-miterlimit="10" x1="325" y1="82.616" x2="325" y2="561.384"/>
<g>
</g>
<g>
</g>
<g>
</g>
<g>
</g>
<g>
</g>
<g>
</g>
<g>
</g>
<g>
</g>
<g>
</g>
<g>
</g>
<g>
</g>
<g>
</g>
<g>
</g>
<g>
</g>
<g>
</g>
</svg>
